Coordinates
version=1
nRows=11
nColumns=40
inDegrees=yes

Units are S.I. units (second, meters, Newtons, ...)
Angles are in degrees.

endheader
time	pelvis_tilt	pelvis_list	pelvis_rotation	pelvis_tx	pelvis_ty	pelvis_tz	hip_flexion_r	hip_adduction_r	hip_rotation_r	knee_angle_r	knee_angle_r_beta	ankle_angle_r	subtalar_angle_r	mtp_angle_r	hip_flexion_l	hip_adduction_l	hip_rotation_l	knee_angle_l	knee_angle_l_beta	ankle_angle_l	subtalar_angle_l	mtp_angle_l	lumbar_extension	lumbar_bending	lumbar_rotation	arm_flex_r	arm_add_r	arm_rot_r	elbow_flex_r	pro_sup_r	wrist_flex_r	wrist_dev_r	arm_flex_l	arm_add_l	arm_rot_l	elbow_flex_l	pro_sup_l	wrist_flex_l	wrist_dev_l
     25.51000000	     -2.85158801	     -6.74916125	      1.63283163	      1.05738198	      0.93561461	      0.42864249	     30.71066385	     -4.43666152	     -7.06956656	     55.85642896	     55.85642896	      1.75221015	    -14.41130826	      1.05530923	     17.39691954	     -8.16505701	     -7.16772857	     21.96376283	     21.96376283	     10.30507629	    -10.42590690	     -4.09042225	    -11.54668470	      1.59293467	      0.43867737	      3.28619822	    -14.82101354	      2.42075306	     55.20436798	     45.60257264	      0.00000000	      0.00000000	     14.21049445	    -15.72657353	     -3.82058780	     32.44852907	     45.44532510	      0.00000000	      0.00000000
     25.52278571	     -2.76856237	     -6.73249314	      1.28316348	      1.05672454	      0.93619733	      0.42805473	     30.85954130	     -4.48485710	     -7.23943233	     53.00132002	     53.00132002	      1.40513117	    -13.97255461	      0.93731335	     16.66422141	     -8.16373432	     -7.56542469	     21.55554668	     21.55554668	     10.40890365	    -10.31381765	     -4.25261481	    -11.76638969	      1.59398014	      0.68208496	      2.73286748	    -15.03402510	      2.23528755	     52.86557534	     45.68670888	      0.00000000	      0.00000000	     15.02316543	    -15.67134719	     -3.66864488	     32.51042799	     45.45549138	      0.00000000	      0.00000000
     25.53557143	     -2.87753294	     -6.77128250	      0.96397362	      1.05594585	      0.93638365	      0.42751603	     31.01098506	     -4.43008982	     -7.50674266	     49.76206556	     49.76206556	      0.36114414	    -13.91426095	     -0.59281910	     16.28225606	     -8.23017359	     -7.91857424	     21.35270617	     21.35270617	     10.44719873	    -10.25030031	     -4.71006865	    -11.70814241	      1.65910380	      0.24222294	      3.28474376	    -14.42131008	      0.89350692	     48.28013791	     45.89414623	      0.00000000	      0.00000000	     15.21607158	    -16.01797336	     -3.35795656	     32.75802628	     45.46974315	      0.00000000	      0.00000000
     25.54835714	     -2.94229793	     -6.79554259	      0.65449324	      1.05520923	      0.93656042	      0.42696315	     31.02385248	     -4.36472625	     -7.83891280	     46.44627433	     46.44627433	     -0.06624515	    -13.35726124	     -0.24147730	     15.84261078	     -8.25273551	     -8.19664449	     21.13543055	     21.13543055	     10.61126814	    -10.25579316	     -4.77007237	    -11.79780274	      1.75000643	      0.29312556	      2.48400637	    -14.73903321	      0.74256668	     47.18104608	     45.93351365	      0.00000000	      0.00000000	     15.65030705	    -16.04677174	     -3.36920569	     33.25598602	     45.48595546	      0.00000000	      0.00000000
     25.56114286	     -3.00753535	     -6.74729630	      0.32174728	      1.05454848	      0.93666708	      0.42656436	     30.85252513	     -4.29738428	     -8.18552626	     42.83565386	     42.83565386	     -1.04115649	    -12.96064761	     -1.46325910	     15.40706210	     -8.26215354	     -8.72971271	     20.94988903	     20.94988903	     10.73485148	     -9.96215144	     -5.17696588	    -11.81701863	      1.69957931	      0.09328054	      3.21621049	    -14.14888698	     -0.97772486	     42.08909373	     46.18222587	      0.00000000	      0.00000000	     15.70293465	    -16.37480400	     -3.17059517	     34.35404056	     45.51154314	      0.00000000	      0.00000000
     25.57392857	     -3.06571969	     -6.64450400	     -0.01125135	      1.05389734	      0.93670302	      0.42615082	     30.62160812	     -4.27741744	     -8.64588442	     39.24417261	     39.24417261	     -1.49259598	    -11.99218628	     -1.28703666	     14.93542223	     -8.15760090	     -9.09739140	     20.69518904	     20.69518904	     10.88547392	     -9.90468242	     -5.25707505	    -11.90880929	      1.64234256	      0.31711870	      2.64173975	    -14.34644030	     -1.44498432	     40.43707768	     46.25271777	      0.00000000	      0.00000000	     16.13970878	    -16.37677526	     -3.17609078	     35.06391615	     45.53956912	      0.00000000	      0.00000000
     25.58671429	     -3.29080919	     -6.59679024	     -0.30381947	      1.05321541	      0.93642129	      0.42585592	     30.46563773	     -4.13621382	     -9.16573080	     35.56428595	     35.56428595	     -1.82144598	    -10.90624229	     -0.77609924	     14.71324810	     -8.11258561	     -9.38413432	     20.52871922	     20.52871922	     11.03925271	     -9.89883913	     -5.34712792	    -11.80900593	      1.65712893	      0.24412487	      2.05238876	    -14.53432392	     -1.63335210	     39.52498823	     46.29047904	      0.00000000	      0.00000000	     16.42678759	    -16.49783401	     -3.19278957	     35.39261992	     45.55222986	      0.00000000	      0.00000000
     25.59950000	     -3.32018080	     -6.41896716	     -0.58869693	      1.05278884	      0.93636930	      0.42556031	     29.91287914	     -4.11291349	     -9.83762046	     31.69605571	     31.69605571	     -2.46794441	     -9.38859172	     -1.75400276	     14.23089284	     -7.96265166	     -9.88776065	     20.32296348	     20.32296348	     11.18743275	     -9.58157417	     -5.73696601	    -11.85950129	      1.49900282	     -0.00495273	      3.31113346	    -13.78990991	     -4.12575998	     33.99219316	     46.60635933	      0.00000000	      0.00000000	     16.33177007	    -16.67293823	     -3.08937092	     36.54065628	     45.60645200	      0.00000000	      0.00000000
     25.61228571	     -3.44409043	     -6.25042868	     -0.84997038	      1.05231227	      0.93600524	      0.42539553	     29.51778682	     -4.02497897	    -10.52236136	     28.11360890	     28.11360890	     -2.54478794	     -7.56968427	     -1.25728224	     13.89090437	     -7.80030241	    -10.24827145	     20.16645938	     20.16645938	     11.38281766	     -9.51169534	     -5.86745403	    -11.85656009	      1.39465571	      0.17730556	      2.67852460	    -14.20514027	     -4.42025884	     33.19412335	     46.64369372	      0.00000000	      0.00000000	     16.76270160	    -16.73492626	     -3.15363914	     36.99777097	     45.63214131	      0.00000000	      0.00000000
     25.62507143	     -3.62797980	     -6.10286354	     -1.11121017	      1.05194777	      0.93558601	      0.42536159	     29.10411309	     -3.85384712	    -11.22053880	     24.59436677	     24.59436677	     -2.66928120	     -5.51938959	     -0.66102623	     13.58261603	     -7.65859621	    -10.57025083	     19.95480088	     19.95480088	     11.58934684	     -9.38662112	     -6.02469483	    -11.75074068	      1.30255455	      0.27708278	      2.12270786	    -14.43846288	     -4.66341127	     32.30453990	     46.68527500	      0.00000000	      0.00000000	     17.07981432	    -16.64789802	     -3.16805753	     37.38845360	     45.64715797	      0.00000000	      0.00000000
     25.63785714	     -3.77411562	     -5.88379045	     -1.34472200	      1.05171246	      0.93515705	      0.42537021	     28.62050457	     -3.74097513	    -11.94990975	     21.32466978	     21.32466978	     -2.62357544	     -3.13246891	      0.00537862	     13.22825107	     -7.44792234	    -10.95695357	     19.73950362	     19.73950362	     11.78473553	     -9.20848971	     -6.22128575	    -11.72523679	      1.13889549	      0.45168063	      1.68481630	    -14.61819932	     -4.95331159	     31.26441584	     46.73752560	      0.00000000	      0.00000000	     17.39596006	    -16.58084229	     -3.18430936	     37.79733050	     45.66295683	      0.00000000	      0.00000000
